<?xml version="1.0" encoding="utf-8"?>
<svg xmlns="http://www.w3.org/2000/svg" xmlns:xlink="http://www.w3.org/1999/xlink">
  <symbol fill="currentColor" class="icon icon-eraser" viewBox="0 0 24 24" id="eraser" xmlns="http://www.w3.org/2000/svg">
    <path d="M15.14,3C14.63,3 14.12,3.2 13.73,3.59L2.59,14.73C1.81,15.5 1.81,16.77 2.59,17.56L5.03,20H12.69L21.41,11.27C22.2,10.5 22.2,9.23 21.41,8.44L16.56,3.59C16.17,3.2 15.65,3 15.14,3M17,18L15,20H22V18" />
  </symbol>

  <symbol fill="currentColor" class="icon icon-color-fill" viewBox="0 0 24 24" id="color-fill" xmlns="http://www.w3.org/2000/svg">
    <rect fill="none" height="24" width="24"/>
    <path d="M16.56,8.94L7.62,0L6.21,1.41l2.38,2.38L3.44,8.94c-0.59,0.59-0.59,1.54,0,2.12l5.5,5.5C9.23,16.85,9.62,17,10,17 s0.77-0.15,1.06-0.44l5.5-5.5C17.15,10.48,17.15,9.53,16.56,8.94z M5.21,10L10,5.21L14.79,10H5.21z M19,11.5c0,0-2,2.17-2,3.5 c0,1.1,0.9,2,2,2s2-0.9,2-2C21,13.67,19,11.5,19,11.5z M2,20h20v4H2V20z"/>
  </symbol>

  <symbol fill="currentColor" class="icon icon-draw" viewBox="0 0 24 24" id="draw" xmlns="http://www.w3.org/2000/svg">
    <rect fill="none" height="24" width="24"/>
    <path d="M18.85,10.39l1.06-1.06c0.78-0.78,0.78-2.05,0-2.83L18.5,5.09c-0.78-0.78-2.05-0.78-2.83,0l-1.06,1.06L18.85,10.39z M13.19,7.56L4,16.76V21h4.24l9.19-9.19L13.19,7.56z M19,17.5c0,2.19-2.54,3.5-5,3.5c-0.55,0-1-0.45-1-1s0.45-1,1-1 c1.54,0,3-0.73,3-1.5c0-0.47-0.48-0.87-1.23-1.2l1.48-1.48C18.32,15.45,19,16.29,19,17.5z M4.58,13.35C3.61,12.79,3,12.06,3,11 c0-1.8,1.89-2.63,3.56-3.36C7.59,7.18,9,6.56,9,6c0-0.41-0.78-1-2-1C5.74,5,5.2,5.61,5.17,5.64C4.82,6.05,4.19,6.1,3.77,5.76 C3.36,5.42,3.28,4.81,3.62,4.38C3.73,4.24,4.76,3,7,3c2.24,0,4,1.32,4,3c0,1.87-1.93,2.72-3.64,3.47C6.42,9.88,5,10.5,5,11 c0,0.31,0.43,0.6,1.07,0.86L4.58,13.35z"/>
  </symbol>

  <symbol fill="currentColor" class="icon icon-undo" viewBox="0 0 24 24" id="undo" xmlns="http://www.w3.org/2000/svg">
    <path d="M12.5,8C9.85,8 7.45,9 5.6,10.6L2,7V16H11L7.38,12.38C8.77,11.22 10.54,10.5 12.5,10.5C16.04,10.5 19.05,12.81 20.1,16L22.47,15.22C21.08,11.03 17.15,8 12.5,8Z" />
  </symbol>

  <symbol fill="currentColor" class="icon icon-redo" viewBox="0 0 24 24" id="redo" xmlns="http://www.w3.org/2000/svg">
    <path d="M18.4,10.6C16.55,9 14.15,8 11.5,8C6.85,8 2.92,11.03 1.54,15.22L3.9,16C4.95,12.81 7.95,10.5 11.5,10.5C13.45,10.5 15.23,11.22 16.62,12.38L13,16H22V7L18.4,10.6Z" />
  </symbol>

  <symbol fill="currentColor" class="icon icon-clear" viewBox="0 0 24 24" id="clear" xmlns="http://www.w3.org/2000/svg">
    <path d="M0 0h24v24H0V0z" fill="none"/><path d="M18.3 5.71c-.39-.39-1.02-.39-1.41 0L12 10.59 7.11 5.7c-.39-.39-1.02-.39-1.41 0-.39.39-.39 1.02 0 1.41L10.59 12 5.7 16.89c-.39.39-.39 1.02 0 1.41.39.39 1.02.39 1.41 0L12 13.41l4.89 4.89c.39.39 1.02.39 1.41 0 .39-.39.39-1.02 0-1.41L13.41 12l4.89-4.89c.38-.38.38-1.02 0-1.4z"/>
  </symbol>
</svg>